<svg xmlns="http://www.w3.org/2000/svg" width="800" height="800" viewBox="0 0 800 800"><style>path{transition:.18s} path:hover{opacity:.75;transform-origin:center;}</style><rect width="800" height="800" fill="transparent"/><g><path id="domain-1" data-domain="1" d="M 405.4 140.1 A 260 260 0 0 1 462.0 147.5 L 432.2 268.9 A 135 135 0 0 0 402.8 265.0 Z" fill="#0E8F78" stroke="#FFF9ED" stroke-width="2" opacity="0.96"/><text x="438.5" y="107.5" text-anchor="middle" dominant-baseline="middle" font-family="Inter, Arial" font-size="18" fill="#06172F">1</text><path id="domain-2" data-domain="2" d="M 472.5 150.3 A 260 260 0 0 1 525.3 172.2 L 465.0 281.7 A 135 135 0 0 0 437.7 270.4 Z" fill="#159B82" stroke="#FFF9ED" stroke-width="2" opacity="0.96"/><text x="512.9" y="127.5" text-anchor="middle" dominant-baseline="middle" font-family="Inter, Arial" font-size="18" fill="#06172F">2</text><path id="domain-3" data-domain="3" d="M 534.7 177.6 A 260 260 0 0 1 580.0 212.3 L 493.4 302.6 A 135 135 0 0 0 469.9 284.5 Z" fill="#1AA088" stroke="#FFF9ED" stroke-width="2" opacity="0.96"/><text x="579.6" y="166.0" text-anchor="middle" dominant-baseline="middle" font-family="Inter, Arial" font-size="18" fill="#06172F">3</text><path id="domain-4" data-domain="4" d="M 587.7 220.0 A 260 260 0 0 1 622.4 265.3 L 515.5 330.1 A 135 135 0 0 0 497.4 306.6 Z" fill="#138FC7" stroke="#FFF9ED" stroke-width="2" opacity="0.96"/><text x="634.0" y="220.4" text-anchor="middle" dominant-baseline="middle" font-family="Inter, Arial" font-size="18" fill="#06172F">4</text><path id="domain-5" data-domain="5" d="M 627.8 274.7 A 260 260 0 0 1 649.7 327.5 L 529.6 362.3 A 135 135 0 0 0 518.3 335.0 Z" fill="#1677D2" stroke="#FFF9ED" stroke-width="2" opacity="0.96"/><text x="672.5" y="287.1" text-anchor="middle" dominant-baseline="middle" font-family="Inter, Arial" font-size="18" fill="#06172F">5</text><path id="domain-6" data-domain="6" d="M 652.5 338.0 A 260 260 0 0 1 659.9 394.6 L 535.0 397.2 A 135 135 0 0 0 531.1 367.8 Z" fill="#1B65C7" stroke="#FFF9ED" stroke-width="2" opacity="0.96"/><text x="692.5" y="361.5" text-anchor="middle" dominant-baseline="middle" font-family="Inter, Arial" font-size="18" fill="#06172F">6</text><path id="domain-7" data-domain="7" d="M 659.9 405.4 A 260 260 0 0 1 652.5 462.0 L 531.1 432.2 A 135 135 0 0 0 535.0 402.8 Z" fill="#2457B7" stroke="#FFF9ED" stroke-width="2" opacity="0.96"/><text x="692.5" y="438.5" text-anchor="middle" dominant-baseline="middle" font-family="Inter, Arial" font-size="18" fill="#06172F">7</text><path id="domain-8" data-domain="8" d="M 649.7 472.5 A 260 260 0 0 1 627.8 525.3 L 518.3 465.0 A 135 135 0 0 0 529.6 437.7 Z" fill="#5836B5" stroke="#D79A2D" stroke-width="5" opacity="0.96"/><text x="672.5" y="512.9" text-anchor="middle" dominant-baseline="middle" font-family="Inter, Arial" font-size="18" fill="#06172F">8</text><path id="domain-9" data-domain="9" d="M 622.4 534.7 A 260 260 0 0 1 587.7 580.0 L 497.4 493.4 A 135 135 0 0 0 515.5 469.9 Z" fill="#6D3FD5" stroke="#FFF9ED" stroke-width="2" opacity="0.96"/><text x="634.0" y="579.6" text-anchor="middle" dominant-baseline="middle" font-family="Inter, Arial" font-size="18" fill="#06172F">9</text><path id="domain-10" data-domain="10" d="M 580.0 587.7 A 260 260 0 0 1 534.7 622.4 L 469.9 515.5 A 135 135 0 0 0 493.4 497.4 Z" fill="#6B47C7" stroke="#FFF9ED" stroke-width="2" opacity="0.96"/><text x="579.6" y="634.0" text-anchor="middle" dominant-baseline="middle" font-family="Inter, Arial" font-size="18" fill="#06172F">10</text><path id="domain-11" data-domain="11" d="M 525.3 627.8 A 260 260 0 0 1 472.5 649.7 L 437.7 529.6 A 135 135 0 0 0 465.0 518.3 Z" fill="#5F4BB6" stroke="#FFF9ED" stroke-width="2" opacity="0.96"/><text x="512.9" y="672.5" text-anchor="middle" dominant-baseline="middle" font-family="Inter, Arial" font-size="18" fill="#06172F">11</text><path id="domain-12" data-domain="12" d="M 462.0 652.5 A 260 260 0 0 1 405.4 659.9 L 402.8 535.0 A 135 135 0 0 0 432.2 531.1 Z" fill="#9146B8" stroke="#FFF9ED" stroke-width="2" opacity="0.96"/><text x="438.5" y="692.5" text-anchor="middle" dominant-baseline="middle" font-family="Inter, Arial" font-size="18" fill="#06172F">12</text><path id="domain-13" data-domain="13" d="M 394.6 659.9 A 260 260 0 0 1 338.0 652.5 L 367.8 531.1 A 135 135 0 0 0 397.2 535.0 Z" fill="#D43D8B" stroke="#FFF9ED" stroke-width="2" opacity="0.96"/><text x="361.5" y="692.5" text-anchor="middle" dominant-baseline="middle" font-family="Inter, Arial" font-size="18" fill="#06172F">13</text><path id="domain-14" data-domain="14" d="M 327.5 649.7 A 260 260 0 0 1 274.7 627.8 L 335.0 518.3 A 135 135 0 0 0 362.3 529.6 Z" fill="#E65A43" stroke="#FFF9ED" stroke-width="2" opacity="0.96"/><text x="287.1" y="672.5" text-anchor="middle" dominant-baseline="middle" font-family="Inter, Arial" font-size="18" fill="#06172F">14</text><path id="domain-15" data-domain="15" d="M 265.3 622.4 A 260 260 0 0 1 220.0 587.7 L 306.6 497.4 A 135 135 0 0 0 330.1 515.5 Z" fill="#E98B2A" stroke="#FFF9ED" stroke-width="2" opacity="0.96"/><text x="220.4" y="634.0" text-anchor="middle" dominant-baseline="middle" font-family="Inter, Arial" font-size="18" fill="#06172F">15</text><path id="domain-16" data-domain="16" d="M 212.3 580.0 A 260 260 0 0 1 177.6 534.7 L 284.5 469.9 A 135 135 0 0 0 302.6 493.4 Z" fill="#C9C9C9" stroke="#FFF9ED" stroke-width="2" opacity="0.96"/><text x="166.0" y="579.6" text-anchor="middle" dominant-baseline="middle" font-family="Inter, Arial" font-size="18" fill="#06172F">16</text><path id="domain-17" data-domain="17" d="M 172.2 525.3 A 260 260 0 0 1 150.3 472.5 L 270.4 437.7 A 135 135 0 0 0 281.7 465.0 Z" fill="#C9C9C9" stroke="#FFF9ED" stroke-width="2" opacity="0.96"/><text x="127.5" y="512.9" text-anchor="middle" dominant-baseline="middle" font-family="Inter, Arial" font-size="18" fill="#06172F">17</text><path id="domain-18" data-domain="18" d="M 147.5 462.0 A 260 260 0 0 1 140.1 405.4 L 265.0 402.8 A 135 135 0 0 0 268.9 432.2 Z" fill="#C9C9C9" stroke="#FFF9ED" stroke-width="2" opacity="0.96"/><text x="107.5" y="438.5" text-anchor="middle" dominant-baseline="middle" font-family="Inter, Arial" font-size="18" fill="#06172F">18</text><path id="domain-19" data-domain="19" d="M 140.1 394.6 A 260 260 0 0 1 147.5 338.0 L 268.9 367.8 A 135 135 0 0 0 265.0 397.2 Z" fill="#C9C9C9" stroke="#FFF9ED" stroke-width="2" opacity="0.96"/><text x="107.5" y="361.5" text-anchor="middle" dominant-baseline="middle" font-family="Inter, Arial" font-size="18" fill="#06172F">19</text><path id="domain-20" data-domain="20" d="M 150.3 327.5 A 260 260 0 0 1 172.2 274.7 L 281.7 335.0 A 135 135 0 0 0 270.4 362.3 Z" fill="#C9C9C9" stroke="#FFF9ED" stroke-width="2" opacity="0.96"/><text x="127.5" y="287.1" text-anchor="middle" dominant-baseline="middle" font-family="Inter, Arial" font-size="18" fill="#06172F">20</text><path id="domain-21" data-domain="21" d="M 177.6 265.3 A 260 260 0 0 1 212.3 220.0 L 302.6 306.6 A 135 135 0 0 0 284.5 330.1 Z" fill="#2E896B" stroke="#FFF9ED" stroke-width="2" opacity="0.96"/><text x="166.0" y="220.4" text-anchor="middle" dominant-baseline="middle" font-family="Inter, Arial" font-size="18" fill="#06172F">21</text><path id="domain-22" data-domain="22" d="M 220.0 212.3 A 260 260 0 0 1 265.3 177.6 L 330.1 284.5 A 135 135 0 0 0 306.6 302.6 Z" fill="#2A956F" stroke="#FFF9ED" stroke-width="2" opacity="0.96"/><text x="220.4" y="166.0" text-anchor="middle" dominant-baseline="middle" font-family="Inter, Arial" font-size="18" fill="#06172F">22</text><path id="domain-23" data-domain="23" d="M 274.7 172.2 A 260 260 0 0 1 327.5 150.3 L 362.3 270.4 A 135 135 0 0 0 335.0 281.7 Z" fill="#1C9B8F" stroke="#FFF9ED" stroke-width="2" opacity="0.96"/><text x="287.1" y="127.5" text-anchor="middle" dominant-baseline="middle" font-family="Inter, Arial" font-size="18" fill="#06172F">23</text><path id="domain-24" data-domain="24" d="M 338.0 147.5 A 260 260 0 0 1 394.6 140.1 L 397.2 265.0 A 135 135 0 0 0 367.8 268.9 Z" fill="#1591AF" stroke="#FFF9ED" stroke-width="2" opacity="0.96"/><text x="361.5" y="107.5" text-anchor="middle" dominant-baseline="middle" font-family="Inter, Arial" font-size="18" fill="#06172F">24</text></g><circle cx="400" cy="400" r="128" fill="#06172F" stroke="#D79A2D" stroke-width="3"/><text x="400" y="382" text-anchor="middle" font-family="Georgia, serif" font-size="44" fill="#FFFFFF">18 / 24</text><text x="400" y="423" text-anchor="middle" font-family="Inter, Arial" font-size="22" fill="#FFFFFF">Domains</text><text x="400" y="453" text-anchor="middle" font-family="Inter, Arial" font-size="22" fill="#FFFFFF">explored</text><text x="400" y="500" text-anchor="middle" font-family="Georgia, serif" font-size="32" fill="#D79A2D">✦</text></svg>